<svg width="178" height="31" viewBox="0 0 178 31" fill="none" xmlns="http://www.w3.org/2000/svg">
<path d="M8.72612 29.82C7.44479 29.82 6.29779 29.6237 5.28512 29.231C4.29312 28.8383 3.44579 28.27 2.74312 27.526C2.04045 26.8027 1.50312 25.914 1.13112 24.86C0.75912 23.806 0.57312 22.6177 0.57312 21.295V14.816H6.18412V21.45C6.18412 22.2353 6.41145 22.8347 6.86612 23.248C7.32079 23.6613 8.05445 23.868 9.06712 23.868H10.0901C11.2061 23.868 12.0018 23.6407 12.4771 23.186C12.9525 22.7313 13.1901 22.1527 13.1901 21.45V11.902H18.8011V21.109C18.8011 22.3077 18.6048 23.434 18.2121 24.488C17.8195 25.542 17.2511 26.4617 16.5071 27.247C15.7838 28.053 14.8951 28.6833 13.8411 29.138C12.7871 29.5927 11.5988 29.82 10.2761 29.82H8.72612ZM11.4851 10.8325C11.4851 12.0053 10.5344 12.956 9.36162 12.956H7.96662C6.79384 12.956 5.84312 12.0053 5.84312 10.8325V10.8325C5.84312 9.65972 6.79384 8.709 7.96662 8.709H9.36162C10.5344 8.709 11.4851 9.65972 11.4851 10.8325V10.8325Z" fill="#333333"/>
<path d="M20.648 9.09C20.648 6.32858 22.8866 4.09 25.648 4.09H26.29V23H20.648V9.09Z" fill="#333333"/>
<path d="M34.3205 16.583C34.3205 16.8723 34.4858 17.017 34.8165 17.017H35.9945C36.1185 17.017 36.2218 17.048 36.3045 17.11C36.4078 17.1513 36.4802 17.265 36.5215 17.451C36.5835 17.637 36.6248 17.9263 36.6455 18.319C36.6662 18.7117 36.6765 19.249 36.6765 19.931C36.6765 20.6543 36.6662 21.2227 36.6455 21.636C36.6248 22.0493 36.5835 22.3593 36.5215 22.566C36.4802 22.7727 36.4078 22.8967 36.3045 22.938C36.2218 22.9793 36.1185 23 35.9945 23H35.4985C35.0025 23 34.5685 22.969 34.1965 22.907C34.0725 23.9197 33.7935 24.86 33.3595 25.728C32.9255 26.6167 32.3675 27.3813 31.6855 28.022C31.0035 28.6833 30.1975 29.2 29.2675 29.572C28.3582 29.9647 27.3662 30.161 26.2915 30.161H22.8815L22.3545 24.209H25.6095C26.7255 24.209 27.5108 23.9817 27.9655 23.527C28.4408 23.0723 28.6785 22.504 28.6785 21.822V11.902H34.3205V16.583Z" fill="#333333"/>
<path d="M37.894 17.017C38.018 17.017 38.1316 16.9757 38.235 16.893C38.3383 16.7897 38.39 16.6657 38.39 16.521V11.902H44.001V17.017C44.001 18.009 43.8563 18.877 43.567 19.621C43.2983 20.365 42.916 20.985 42.42 21.481C41.924 21.977 41.3246 22.3593 40.622 22.628C39.94 22.876 39.196 23 38.39 23H36.003C35.879 23 35.7756 22.9793 35.693 22.938C35.5896 22.8967 35.5173 22.783 35.476 22.597C35.414 22.3903 35.3726 22.0907 35.352 21.698C35.3313 21.3053 35.321 20.768 35.321 20.086C35.321 19.3627 35.3313 18.7943 35.352 18.381C35.3726 17.9677 35.414 17.668 35.476 17.482C35.5173 17.2753 35.5896 17.1513 35.693 17.11C35.7756 17.048 35.879 17.017 36.003 17.017H37.894ZM44.869 26.813C44.869 27.9943 43.9113 28.952 42.73 28.952H38.142C36.9606 28.952 36.003 27.9943 36.003 26.813V26.813C36.003 25.6317 36.9606 24.674 38.142 24.674H42.73C43.9113 24.674 44.869 25.6317 44.869 26.813V26.813Z" fill="#333333"/>
<path d="M45.8961 9.09C45.8961 6.32858 48.1347 4.09 50.8961 4.09H51.5381V23H45.8961V9.09Z" fill="#333333"/>
<path d="M70.3054 22.659C70.3054 22.5143 70.2538 22.3903 70.1504 22.287C70.0471 22.1837 69.9334 22.132 69.8094 22.132H63.8264V15.839C63.8264 14.909 63.9711 14.0617 64.2604 13.297C64.5498 12.5117 64.9528 11.84 65.4694 11.282C66.0068 10.724 66.6578 10.29 67.4224 9.98C68.1871 9.67 69.0344 9.515 69.9644 9.515H74.8934L75.2344 15.312H69.9644C69.8198 15.312 69.6958 15.3637 69.5924 15.467C69.5098 15.5703 69.4684 15.6943 69.4684 15.839V16.335H70.4914C71.5041 16.335 72.3514 16.4693 73.0334 16.738C73.7361 17.0067 74.2941 17.3787 74.7074 17.854C75.1414 18.3087 75.4514 18.8667 75.6374 19.528C75.8234 20.1687 75.9164 20.8713 75.9164 21.636C75.9164 22.752 75.6994 23.806 75.2654 24.798C74.8521 25.79 74.2631 26.658 73.4984 27.402C72.7338 28.146 71.8141 28.735 70.7394 29.169C69.6854 29.603 68.5178 29.82 67.2364 29.82H65.0044C63.7231 29.82 62.5761 29.6237 61.5634 29.231C60.5714 28.8383 59.7241 28.27 59.0214 27.526C58.3188 26.8027 57.7814 25.914 57.4094 24.86C57.0374 23.806 56.8514 22.6177 56.8514 21.295V14.816H62.4624V21.45C62.4624 22.2353 62.6898 22.8347 63.1444 23.248C63.5991 23.6613 64.3328 23.868 65.3454 23.868H67.5774C68.6108 23.868 69.3238 23.7543 69.7164 23.527C70.1091 23.2997 70.3054 23.0103 70.3054 22.659Z" fill="#333333"/>
<path d="M85.1203 17.017C85.2443 17.017 85.3476 17.048 85.4303 17.11C85.5336 17.1513 85.606 17.265 85.6473 17.451C85.7093 17.637 85.7506 17.9263 85.7713 18.319C85.792 18.7117 85.8023 19.249 85.8023 19.931C85.8023 20.6543 85.792 21.2227 85.7713 21.636C85.7506 22.0493 85.7093 22.3593 85.6473 22.566C85.606 22.7727 85.5336 22.8967 85.4303 22.938C85.3476 22.9793 85.2443 23 85.1203 23H83.6013C82.5266 23 81.6173 22.845 80.8733 22.535C80.15 22.2043 79.561 21.7703 79.1063 21.233C78.6516 20.6957 78.321 20.0653 78.1143 19.342C77.9076 18.598 77.8043 17.823 77.8043 17.017V9.09C77.8043 6.32858 80.0429 4.09 82.8043 4.09H83.4463V16.521C83.4463 16.8517 83.6116 17.017 83.9423 17.017H85.1203Z" fill="#333333"/>
<path d="M86.9975 17.017C86.8735 16.6863 86.8115 16.18 86.8115 15.498C86.8115 14.7747 86.9665 14.072 87.2765 13.39C87.5865 12.6873 88.0205 12.0673 88.5785 11.53C89.1365 10.972 89.8082 10.5277 90.5935 10.197C91.3995 9.86633 92.2985 9.701 93.2905 9.701C93.8485 9.701 94.3445 9.77333 94.7785 9.918L97.9095 6.818L104.109 13.39C104.812 14.134 105.287 14.8573 105.535 15.56C105.783 16.242 105.907 16.9033 105.907 17.544C105.907 18.3087 105.773 19.0217 105.504 19.683C105.236 20.3443 104.843 20.923 104.326 21.419C103.81 21.915 103.179 22.3077 102.435 22.597C101.712 22.8657 100.885 23 99.9555 23H96.2045C95.5018 23 94.8508 22.9897 94.2515 22.969C93.6728 22.9277 93.1252 22.8243 92.6085 22.659C91.9265 22.8243 91.2032 22.9277 90.4385 22.969C89.6738 22.9897 89.0332 23 88.5165 23H85.1065C84.9825 23 84.8792 22.9793 84.7965 22.938C84.6932 22.8967 84.6208 22.783 84.5795 22.597C84.5175 22.3903 84.4762 22.0907 84.4555 21.698C84.4348 21.3053 84.4245 20.768 84.4245 20.086C84.4245 19.3627 84.4348 18.7943 84.4555 18.381C84.4762 17.9677 84.5175 17.668 84.5795 17.482C84.6208 17.2753 84.6932 17.1513 84.7965 17.11C84.8792 17.048 84.9825 17.017 85.1065 17.017H86.9975ZM92.7015 17.203C92.9702 17.0377 93.1872 16.831 93.3525 16.583C93.5385 16.3143 93.6315 16.0043 93.6315 15.653C93.6315 15.405 93.5488 15.1777 93.3835 14.971C93.2182 14.7643 92.9908 14.661 92.7015 14.661C92.4122 14.661 92.1848 14.7643 92.0195 14.971C91.8542 15.1777 91.7715 15.405 91.7715 15.653C91.7715 16.0043 91.8542 16.3143 92.0195 16.583C92.2055 16.831 92.4328 17.0377 92.7015 17.203ZM100.11 16.583C100.11 16.5003 100.09 16.428 100.048 16.366C100.007 16.2833 99.9348 16.18 99.8315 16.056C99.7281 15.932 99.5732 15.777 99.3665 15.591C99.1598 15.3843 98.9015 15.126 98.5915 14.816V15.002C98.5915 15.4153 98.5502 15.7977 98.4675 16.149C98.4055 16.4797 98.3332 16.769 98.2505 17.017H99.4285C99.6971 17.017 99.8728 16.986 99.9555 16.924C100.059 16.8413 100.11 16.7277 100.11 16.583Z" fill="#333333"/>
<path d="M113.758 16.583C113.758 16.8723 113.923 17.017 114.254 17.017H115.432C115.556 17.017 115.659 17.048 115.742 17.11C115.845 17.1513 115.918 17.265 115.959 17.451C116.021 17.637 116.062 17.9263 116.083 18.319C116.104 18.7117 116.114 19.249 116.114 19.931C116.114 20.6543 116.104 21.2227 116.083 21.636C116.062 22.0493 116.021 22.3593 115.959 22.566C115.918 22.7727 115.845 22.8967 115.742 22.938C115.659 22.9793 115.556 23 115.432 23H114.936C114.44 23 114.006 22.969 113.634 22.907C113.51 23.9197 113.231 24.86 112.797 25.728C112.363 26.6167 111.805 27.3813 111.123 28.022C110.441 28.6833 109.635 29.2 108.705 29.572C107.796 29.9647 106.804 30.161 105.729 30.161H102.319L102.079 27.4513C101.925 25.7089 103.298 24.209 105.047 24.209V24.209C106.163 24.209 106.948 23.9817 107.403 23.527C107.878 23.0723 108.116 22.504 108.116 21.822V16.902C108.116 14.1406 110.355 11.902 113.116 11.902H113.758V16.583Z" fill="#333333"/>
<path d="M117.331 17.017C117.455 17.017 117.569 16.9757 117.672 16.893C117.776 16.7897 117.827 16.6657 117.827 16.521V11.902H123.438V17.017C123.438 18.009 123.294 18.877 123.004 19.621C122.736 20.365 122.353 20.985 121.857 21.481C121.361 21.977 120.762 22.3593 120.059 22.628C119.377 22.876 118.633 23 117.827 23H115.44C115.316 23 115.213 22.9793 115.13 22.938C115.027 22.8967 114.955 22.783 114.913 22.597C114.851 22.3903 114.81 22.0907 114.789 21.698C114.769 21.3053 114.758 20.768 114.758 20.086C114.758 19.3627 114.769 18.7943 114.789 18.381C114.81 17.9677 114.851 17.668 114.913 17.482C114.955 17.2753 115.027 17.1513 115.13 17.11C115.213 17.048 115.316 17.017 115.44 17.017H117.331ZM122.446 26.813C122.446 27.9943 121.489 28.952 120.307 28.952H118.943C117.762 28.952 116.804 27.9943 116.804 26.813V26.813C116.804 25.6317 117.762 24.674 118.943 24.674H120.307C121.489 24.674 122.446 25.6317 122.446 26.813V26.813Z" fill="#333333"/>
<path d="M125.334 9.732C125.334 6.61601 127.86 4.09 130.976 4.09V4.09V23H125.334V9.732Z" fill="#333333"/>
<path d="M172.695 11.4922C172.477 8.32031 169.852 5.75 166.625 5.75C166.188 5.75 165.75 5.80469 165.367 5.91406C163.617 3.72656 160.938 2.25 157.875 2.25C153.227 2.25 149.344 5.53125 148.414 9.90625C145.133 11.2734 143 14.4453 143 18C143 22.8672 146.883 26.75 151.75 26.75H170.125C174.445 26.75 178 23.25 178 18.875C178 15.5391 175.812 12.5859 172.695 11.4922ZM170.125 24.125H151.75C148.359 24.125 145.625 21.3906 145.625 18C145.625 14.9375 147.867 12.3672 150.875 11.9844V11.875C150.875 8.04688 153.992 4.875 157.875 4.875C160.773 4.875 163.289 6.67969 164.328 9.25C164.93 8.70312 165.75 8.375 166.625 8.375C168.539 8.375 170.125 9.96094 170.125 11.875C170.125 12.5312 169.906 13.1328 169.633 13.6797C169.797 13.6797 169.961 13.625 170.125 13.625C173.023 13.625 175.375 15.9766 175.375 18.875C175.375 21.7734 173.023 24.125 170.125 24.125Z" fill="#FCCD33"/>
</svg>
